<svg width="322" height="72" viewBox="0 0 322 72" fill="none" xmlns="http://www.w3.org/2000/svg">
<g clip-path="url(#clip0_1_2)">
<path fill-rule="evenodd" clip-rule="evenodd" d="M65.7674 47.5069C62.4169 47.8317 58.9885 48 55.5 48C32.883 48 12.7893 40.9273 0.0978172 29.976C0.0579159 29.4975 0.0252727 29.0171 0 28.5346C12.1854 20.7345 28.5876 15.9561 46.6282 15.9561C51.4879 15.9561 56.2287 16.3028 60.8002 16.962C60.6722 18.6763 60.6062 20.4253 60.6062 22.2016C60.6062 31.8266 62.5448 40.6487 65.7674 47.5069Z" fill="#BDE598"/>
<path d="M122.632 27.808H144.968V34.848H122.632V27.808ZM123.336 52H115.016V7.19999H147.72V14.176H123.336V52Z" fill="#1C4638"/>
<path d="M165.581 52.448C162.082 52.448 158.967 51.7013 156.237 50.208C153.506 48.672 151.351 46.5813 149.773 43.936C148.194 41.2907 147.405 38.2827 147.405 34.912C147.405 31.4987 148.194 28.4907 149.773 25.888C151.351 23.2427 153.506 21.1733 156.237 19.68C158.967 18.1867 162.082 17.44 165.581 17.44C169.122 17.44 172.258 18.1867 174.989 19.68C177.762 21.1733 179.917 23.2213 181.453 25.824C183.031 28.4267 183.821 31.456 183.821 34.912C183.821 38.2827 183.031 41.2907 181.453 43.936C179.917 46.5813 177.762 48.672 174.989 50.208C172.258 51.7013 169.122 52.448 165.581 52.448ZM165.581 45.6C167.543 45.6 169.293 45.1733 170.829 44.32C172.365 43.4667 173.559 42.2293 174.413 40.608C175.309 38.9867 175.757 37.088 175.757 34.912C175.757 32.6933 175.309 30.7947 174.413 29.216C173.559 27.5947 172.365 26.3573 170.829 25.504C169.293 24.6507 167.565 24.224 165.645 24.224C163.682 24.224 161.933 24.6507 160.397 25.504C158.903 26.3573 157.709 27.5947 156.813 29.216C155.917 30.7947 155.469 32.6933 155.469 34.912C155.469 37.088 155.917 38.9867 156.813 40.608C157.709 42.2293 158.903 43.4667 160.397 44.32C161.933 45.1733 163.661 45.6 165.581 45.6Z" fill="#1C4638"/>
<path d="M187.631 52V17.824H195.247V27.232L194.351 24.48C195.375 22.176 196.975 20.4267 199.151 19.232C201.369 18.0373 204.121 17.44 207.407 17.44V25.056C207.065 24.9707 206.745 24.928 206.447 24.928C206.148 24.8853 205.849 24.864 205.551 24.864C202.521 24.864 200.111 25.76 198.319 27.552C196.527 29.3013 195.631 31.9253 195.631 35.424V52H187.631Z" fill="#1C4638"/>
<path d="M216.881 44.384L217.073 34.336L234.929 17.824H244.529L229.361 33.056L225.137 36.576L216.881 44.384ZM210.353 52V4.51199H218.353V52H210.353ZM236.145 52L223.665 36.576L228.721 30.176L245.873 52H236.145Z" fill="#1C4638"/>
<path d="M247.201 52V17.824H255.201V52H247.201ZM251.232 12.192C249.739 12.192 248.502 11.7227 247.52 10.784C246.582 9.84533 246.113 8.71466 246.113 7.39199C246.113 6.02666 246.582 4.89599 247.52 3.99999C248.502 3.06133 249.739 2.592 251.232 2.592C252.726 2.592 253.942 3.03999 254.88 3.93599C255.862 4.78933 256.352 5.87733 256.352 7.19999C256.352 8.60799 255.883 9.80266 254.945 10.784C254.006 11.7227 252.768 12.192 251.232 12.192Z" fill="#1C4638"/>
<path d="M266.788 52V15.904C266.788 12.32 267.834 9.46133 269.924 7.328C272.058 5.152 275.087 4.064 279.012 4.064C280.42 4.064 281.743 4.21333 282.98 4.51199C284.26 4.81066 285.327 5.27999 286.18 5.91999L284.005 11.936C283.407 11.4667 282.724 11.1253 281.956 10.912C281.188 10.656 280.399 10.528 279.589 10.528C277.925 10.528 276.666 10.9973 275.812 11.936C274.959 12.832 274.533 14.1973 274.533 16.032V19.872L274.788 23.456V52H266.788ZM261.156 24.48V18.08H283.941V24.48H261.156Z" fill="#1C4638"/>
<path d="M292.766 64.864C291.102 64.864 289.439 64.5867 287.775 64.032C286.111 63.4773 284.724 62.7093 283.615 61.728L286.814 55.84C287.625 56.5653 288.542 57.1413 289.566 57.568C290.59 57.9947 291.636 58.208 292.702 58.208C294.153 58.208 295.327 57.8453 296.223 57.12C297.119 56.3947 297.951 55.1787 298.719 53.472L300.702 48.992L301.342 48.032L314.271 17.824H321.951L305.951 54.752C304.884 57.312 303.689 59.3387 302.367 60.832C301.087 62.3253 299.636 63.3707 298.014 63.968C296.436 64.5653 294.686 64.864 292.766 64.864ZM299.807 53.216L284.382 17.824H292.702L305.247 47.328L299.807 53.216Z" fill="#1C4638"/>
<rect x="71" y="57" width="8" height="15" fill="#1C4638"/>
<path d="M118.591 68V64.2605L118.982 65.3405L114.878 58.55H116.755L120.049 64.0175H118.996L122.317 58.55H124.045L119.941 65.3405L120.346 64.2605V68H118.591Z" fill="#BDE598"/>
<path d="M127.468 68.0945C126.73 68.0945 126.073 67.937 125.497 67.622C124.921 67.298 124.467 66.857 124.134 66.299C123.801 65.741 123.634 65.1065 123.634 64.3955C123.634 63.6755 123.801 63.041 124.134 62.492C124.467 61.934 124.921 61.4975 125.497 61.1825C126.073 60.8675 126.73 60.71 127.468 60.71C128.215 60.71 128.877 60.8675 129.453 61.1825C130.038 61.4975 130.492 61.9295 130.816 62.4785C131.149 63.0275 131.316 63.6665 131.316 64.3955C131.316 65.1065 131.149 65.741 130.816 66.299C130.492 66.857 130.038 67.298 129.453 67.622C128.877 67.937 128.215 68.0945 127.468 68.0945ZM127.468 66.65C127.882 66.65 128.251 66.56 128.575 66.38C128.899 66.2 129.151 65.939 129.331 65.597C129.52 65.255 129.615 64.8545 129.615 64.3955C129.615 63.9275 129.52 63.527 129.331 63.194C129.151 62.852 128.899 62.591 128.575 62.411C128.251 62.231 127.887 62.141 127.482 62.141C127.068 62.141 126.699 62.231 126.375 62.411C126.06 62.591 125.808 62.852 125.619 63.194C125.43 63.527 125.335 63.9275 125.335 64.3955C125.335 64.8545 125.43 65.255 125.619 65.597C125.808 65.939 126.06 66.2 126.375 66.38C126.699 66.56 127.063 66.65 127.468 66.65Z" fill="#BDE598"/>
<path d="M135.98 68.0945C135.368 68.0945 134.828 67.982 134.36 67.757C133.892 67.523 133.528 67.172 133.267 66.704C133.006 66.227 132.875 65.6285 132.875 64.9085V60.791H134.563V64.679C134.563 65.327 134.707 65.813 134.995 66.137C135.292 66.452 135.71 66.6095 136.25 66.6095C136.646 66.6095 136.988 66.5285 137.276 66.3665C137.573 66.2045 137.803 65.9615 137.965 65.6375C138.136 65.3135 138.221 64.913 138.221 64.436V60.791H139.909V68H138.302V66.056L138.586 66.65C138.343 67.118 137.987 67.478 137.519 67.73C137.051 67.973 136.538 68.0945 135.98 68.0945Z" fill="#BDE598"/>
<path d="M142.118 68V60.791H143.725V62.7755L143.536 62.195C143.752 61.709 144.089 61.34 144.548 61.088C145.016 60.836 145.597 60.71 146.29 60.71V62.3165C146.218 62.2985 146.15 62.2895 146.087 62.2895C146.024 62.2805 145.961 62.276 145.898 62.276C145.259 62.276 144.751 62.465 144.373 62.843C143.995 63.212 143.806 63.7655 143.806 64.5035V68H142.118Z" fill="#BDE598"/>
<path d="M150.344 68L154.596 58.55H156.324L160.59 68H158.754L155.096 59.4815H155.798L152.153 68H150.344ZM152.301 65.813L152.774 64.436H157.877L158.349 65.813H152.301Z" fill="#BDE598"/>
<path d="M161.792 68V58.55H163.547V68H161.792Z" fill="#BDE598"/>
<path d="M178.771 60.71C179.347 60.71 179.855 60.8225 180.296 61.0475C180.746 61.2725 181.097 61.619 181.349 62.087C181.601 62.546 181.727 63.14 181.727 63.869V68H180.04V64.085C180.04 63.446 179.9 62.969 179.621 62.654C179.342 62.339 178.942 62.1815 178.42 62.1815C178.051 62.1815 177.722 62.2625 177.434 62.4245C177.155 62.5865 176.935 62.825 176.773 63.14C176.62 63.455 176.543 63.8555 176.543 64.3415V68H174.856V64.085C174.856 63.446 174.716 62.969 174.437 62.654C174.158 62.339 173.758 62.1815 173.236 62.1815C172.867 62.1815 172.538 62.2625 172.25 62.4245C171.971 62.5865 171.751 62.825 171.589 63.14C171.436 63.455 171.359 63.8555 171.359 64.3415V68H169.672V60.791H171.278V62.708L170.995 62.141C171.238 61.673 171.589 61.3175 172.048 61.0745C172.516 60.8315 173.047 60.71 173.641 60.71C174.316 60.71 174.901 60.8765 175.396 61.2095C175.9 61.5425 176.233 62.0465 176.395 62.7215L175.733 62.492C175.967 61.952 176.354 61.52 176.894 61.196C177.434 60.872 178.06 60.71 178.771 60.71Z" fill="#BDE598"/>
<path d="M187.286 68.0945C186.485 68.0945 185.783 67.937 185.18 67.622C184.586 67.298 184.122 66.857 183.789 66.299C183.465 65.741 183.303 65.1065 183.303 64.3955C183.303 63.6755 183.461 63.041 183.776 62.492C184.1 61.934 184.541 61.4975 185.099 61.1825C185.666 60.8675 186.309 60.71 187.029 60.71C187.731 60.71 188.357 60.863 188.906 61.169C189.455 61.475 189.887 61.907 190.202 62.465C190.517 63.023 190.674 63.68 190.674 64.436C190.674 64.508 190.67 64.589 190.661 64.679C190.661 64.769 190.656 64.8545 190.647 64.9355H184.64V63.815H189.756L189.095 64.166C189.104 63.752 189.018 63.3875 188.838 63.0725C188.658 62.7575 188.411 62.51 188.096 62.33C187.79 62.15 187.434 62.06 187.029 62.06C186.615 62.06 186.251 62.15 185.936 62.33C185.63 62.51 185.387 62.762 185.207 63.086C185.036 63.401 184.95 63.7745 184.95 64.2065V64.4765C184.95 64.9085 185.049 65.291 185.247 65.624C185.445 65.957 185.724 66.2135 186.084 66.3935C186.444 66.5735 186.858 66.6635 187.326 66.6635C187.731 66.6635 188.096 66.6005 188.42 66.4745C188.744 66.3485 189.032 66.1505 189.284 65.8805L190.188 66.92C189.864 67.298 189.455 67.5905 188.96 67.7975C188.474 67.9955 187.916 68.0945 187.286 68.0945Z" fill="#BDE598"/>
<path d="M196.385 60.71C196.961 60.71 197.474 60.8225 197.924 61.0475C198.383 61.2725 198.743 61.619 199.004 62.087C199.265 62.546 199.396 63.14 199.396 63.869V68H197.708V64.085C197.708 63.446 197.555 62.969 197.249 62.654C196.952 62.339 196.534 62.1815 195.994 62.1815C195.598 62.1815 195.247 62.2625 194.941 62.4245C194.635 62.5865 194.396 62.8295 194.225 63.1535C194.063 63.4685 193.982 63.869 193.982 64.355V68H192.295V60.791H193.901V62.735L193.618 62.141C193.87 61.682 194.234 61.331 194.711 61.088C195.197 60.836 195.755 60.71 196.385 60.71Z" fill="#BDE598"/>
<path d="M204.588 68.0945C203.976 68.0945 203.436 67.982 202.968 67.757C202.5 67.523 202.135 67.172 201.874 66.704C201.613 66.227 201.483 65.6285 201.483 64.9085V60.791H203.17V64.679C203.17 65.327 203.314 65.813 203.602 66.137C203.899 66.452 204.318 66.6095 204.858 66.6095C205.254 66.6095 205.596 66.5285 205.884 66.3665C206.181 66.2045 206.41 65.9615 206.572 65.6375C206.743 65.3135 206.829 64.913 206.829 64.436V60.791H208.516V68H206.91V66.056L207.193 66.65C206.95 67.118 206.595 67.478 206.127 67.73C205.659 67.973 205.146 68.0945 204.588 68.0945Z" fill="#BDE598"/>
<path d="M218.898 68V66.542L218.804 66.2315V63.68C218.804 63.185 218.655 62.8025 218.358 62.5325C218.061 62.2535 217.611 62.114 217.008 62.114C216.603 62.114 216.203 62.177 215.807 62.303C215.42 62.429 215.091 62.6045 214.821 62.8295L214.16 61.601C214.547 61.304 215.006 61.0835 215.537 60.9395C216.077 60.7865 216.635 60.71 217.211 60.71C218.255 60.71 219.06 60.962 219.627 61.466C220.203 61.961 220.491 62.7305 220.491 63.7745V68H218.898ZM216.63 68.0945C216.09 68.0945 215.618 68.0045 215.213 67.8245C214.808 67.6355 214.493 67.379 214.268 67.055C214.052 66.722 213.944 66.3485 213.944 65.9345C213.944 65.5295 214.038 65.165 214.227 64.841C214.425 64.517 214.745 64.2605 215.186 64.0715C215.627 63.8825 216.212 63.788 216.941 63.788H219.033V64.9085H217.062C216.486 64.9085 216.099 65.003 215.901 65.192C215.703 65.372 215.604 65.597 215.604 65.867C215.604 66.173 215.726 66.416 215.969 66.596C216.212 66.776 216.549 66.866 216.981 66.866C217.395 66.866 217.764 66.7715 218.088 66.5825C218.421 66.3935 218.66 66.1145 218.804 65.7455L219.087 66.758C218.925 67.181 218.633 67.5095 218.21 67.7435C217.796 67.9775 217.269 68.0945 216.63 68.0945Z" fill="#BDE598"/>
<path d="M224.884 68.0945C224.281 68.0945 223.701 68.018 223.143 67.865C222.594 67.703 222.157 67.5095 221.833 67.2845L222.481 66.002C222.805 66.209 223.192 66.38 223.642 66.515C224.092 66.65 224.542 66.7175 224.992 66.7175C225.523 66.7175 225.906 66.6455 226.14 66.5015C226.383 66.3575 226.504 66.164 226.504 65.921C226.504 65.723 226.423 65.5745 226.261 65.4755C226.099 65.3675 225.888 65.2865 225.627 65.2325C225.366 65.1785 225.073 65.129 224.749 65.084C224.434 65.039 224.115 64.9805 223.791 64.9085C223.476 64.8275 223.188 64.715 222.927 64.571C222.666 64.418 222.454 64.2155 222.292 63.9635C222.13 63.7115 222.049 63.3785 222.049 62.9645C222.049 62.5055 222.18 62.1095 222.441 61.7765C222.702 61.4345 223.066 61.1735 223.534 60.9935C224.011 60.8045 224.574 60.71 225.222 60.71C225.708 60.71 226.198 60.764 226.693 60.872C227.188 60.98 227.598 61.133 227.922 61.331L227.274 62.6135C226.932 62.4065 226.585 62.267 226.234 62.195C225.892 62.114 225.55 62.0735 225.208 62.0735C224.695 62.0735 224.313 62.15 224.061 62.303C223.818 62.456 223.696 62.6495 223.696 62.8835C223.696 63.0995 223.777 63.2615 223.939 63.3695C224.101 63.4775 224.313 63.563 224.574 63.626C224.835 63.689 225.123 63.743 225.438 63.788C225.762 63.824 226.081 63.8825 226.396 63.9635C226.711 64.0445 226.999 64.157 227.26 64.301C227.53 64.436 227.746 64.6295 227.908 64.8815C228.07 65.1335 228.151 65.462 228.151 65.867C228.151 66.317 228.016 66.7085 227.746 67.0415C227.485 67.3745 227.112 67.6355 226.626 67.8245C226.14 68.0045 225.559 68.0945 224.884 68.0945Z" fill="#BDE598"/>
<path d="M231.832 68.0945C231.229 68.0945 230.649 68.018 230.091 67.865C229.542 67.703 229.105 67.5095 228.781 67.2845L229.429 66.002C229.753 66.209 230.14 66.38 230.59 66.515C231.04 66.65 231.49 66.7175 231.94 66.7175C232.471 66.7175 232.854 66.6455 233.088 66.5015C233.331 66.3575 233.452 66.164 233.452 65.921C233.452 65.723 233.371 65.5745 233.209 65.4755C233.047 65.3675 232.836 65.2865 232.575 65.2325C232.314 65.1785 232.021 65.129 231.697 65.084C231.382 65.039 231.063 64.9805 230.739 64.9085C230.424 64.8275 230.136 64.715 229.875 64.571C229.614 64.418 229.402 64.2155 229.24 63.9635C229.078 63.7115 228.997 63.3785 228.997 62.9645C228.997 62.5055 229.128 62.1095 229.389 61.7765C229.65 61.4345 230.014 61.1735 230.482 60.9935C230.959 60.8045 231.522 60.71 232.17 60.71C232.656 60.71 233.146 60.764 233.641 60.872C234.136 60.98 234.546 61.133 234.87 61.331L234.222 62.6135C233.88 62.4065 233.533 62.267 233.182 62.195C232.84 62.114 232.498 62.0735 232.156 62.0735C231.643 62.0735 231.261 62.15 231.009 62.303C230.766 62.456 230.644 62.6495 230.644 62.8835C230.644 63.0995 230.725 63.2615 230.887 63.3695C231.049 63.4775 231.261 63.563 231.522 63.626C231.783 63.689 232.071 63.743 232.386 63.788C232.71 63.824 233.029 63.8825 233.344 63.9635C233.659 64.0445 233.947 64.157 234.208 64.301C234.478 64.436 234.694 64.6295 234.856 64.8815C235.018 65.1335 235.099 65.462 235.099 65.867C235.099 66.317 234.964 66.7085 234.694 67.0415C234.433 67.3745 234.06 67.6355 233.574 67.8245C233.088 68.0045 232.507 68.0945 231.832 68.0945Z" fill="#BDE598"/>
<path d="M236.552 68V60.791H238.24V68H236.552ZM237.403 59.603C237.088 59.603 236.827 59.504 236.62 59.306C236.422 59.108 236.323 58.8695 236.323 58.5905C236.323 58.3025 236.422 58.064 236.62 57.875C236.827 57.677 237.088 57.578 237.403 57.578C237.718 57.578 237.974 57.6725 238.172 57.8615C238.379 58.0415 238.483 58.271 238.483 58.55C238.483 58.847 238.384 59.099 238.186 59.306C237.988 59.504 237.727 59.603 237.403 59.603Z" fill="#BDE598"/>
<path d="M242.682 68.0945C242.079 68.0945 241.499 68.018 240.941 67.865C240.392 67.703 239.955 67.5095 239.631 67.2845L240.279 66.002C240.603 66.209 240.99 66.38 241.44 66.515C241.89 66.65 242.34 66.7175 242.79 66.7175C243.321 66.7175 243.704 66.6455 243.938 66.5015C244.181 66.3575 244.302 66.164 244.302 65.921C244.302 65.723 244.221 65.5745 244.059 65.4755C243.897 65.3675 243.686 65.2865 243.425 65.2325C243.164 65.1785 242.871 65.129 242.547 65.084C242.232 65.039 241.913 64.9805 241.589 64.9085C241.274 64.8275 240.986 64.715 240.725 64.571C240.464 64.418 240.252 64.2155 240.09 63.9635C239.928 63.7115 239.847 63.3785 239.847 62.9645C239.847 62.5055 239.978 62.1095 240.239 61.7765C240.5 61.4345 240.864 61.1735 241.332 60.9935C241.809 60.8045 242.372 60.71 243.02 60.71C243.506 60.71 243.996 60.764 244.491 60.872C244.986 60.98 245.396 61.133 245.72 61.331L245.072 62.6135C244.73 62.4065 244.383 62.267 244.032 62.195C243.69 62.114 243.348 62.0735 243.006 62.0735C242.493 62.0735 242.111 62.15 241.859 62.303C241.616 62.456 241.494 62.6495 241.494 62.8835C241.494 63.0995 241.575 63.2615 241.737 63.3695C241.899 63.4775 242.111 63.563 242.372 63.626C242.633 63.689 242.921 63.743 243.236 63.788C243.56 63.824 243.879 63.8825 244.194 63.9635C244.509 64.0445 244.797 64.157 245.058 64.301C245.328 64.436 245.544 64.6295 245.706 64.8815C245.868 65.1335 245.949 65.462 245.949 65.867C245.949 66.317 245.814 66.7085 245.544 67.0415C245.283 67.3745 244.91 67.6355 244.424 67.8245C243.938 68.0045 243.357 68.0945 242.682 68.0945Z" fill="#BDE598"/>
<path d="M250.116 68.0945C249.324 68.0945 248.712 67.892 248.28 67.487C247.848 67.073 247.632 66.4655 247.632 65.6645V59.198H249.319V65.624C249.319 65.966 249.405 66.2315 249.576 66.4205C249.756 66.6095 250.003 66.704 250.318 66.704C250.696 66.704 251.011 66.605 251.263 66.407L251.736 67.6085C251.538 67.7705 251.295 67.892 251.007 67.973C250.719 68.054 250.422 68.0945 250.116 68.0945ZM246.444 62.195V60.845H251.25V62.195H246.444Z" fill="#BDE598"/>
<path d="M257.566 68V66.542L257.471 66.2315V63.68C257.471 63.185 257.323 62.8025 257.026 62.5325C256.729 62.2535 256.279 62.114 255.676 62.114C255.271 62.114 254.87 62.177 254.474 62.303C254.087 62.429 253.759 62.6045 253.489 62.8295L252.827 61.601C253.214 61.304 253.673 61.0835 254.204 60.9395C254.744 60.7865 255.302 60.71 255.878 60.71C256.922 60.71 257.728 60.962 258.295 61.466C258.871 61.961 259.159 62.7305 259.159 63.7745V68H257.566ZM255.298 68.0945C254.758 68.0945 254.285 68.0045 253.88 67.8245C253.475 67.6355 253.16 67.379 252.935 67.055C252.719 66.722 252.611 66.3485 252.611 65.9345C252.611 65.5295 252.706 65.165 252.895 64.841C253.093 64.517 253.412 64.2605 253.853 64.0715C254.294 63.8825 254.879 63.788 255.608 63.788H257.701V64.9085H255.73C255.154 64.9085 254.767 65.003 254.569 65.192C254.371 65.372 254.272 65.597 254.272 65.867C254.272 66.173 254.393 66.416 254.636 66.596C254.879 66.776 255.217 66.866 255.649 66.866C256.063 66.866 256.432 66.7715 256.756 66.5825C257.089 66.3935 257.327 66.1145 257.471 65.7455L257.755 66.758C257.593 67.181 257.3 67.5095 256.877 67.7435C256.463 67.9775 255.937 68.0945 255.298 68.0945Z" fill="#BDE598"/>
<path d="M265.415 60.71C265.991 60.71 266.504 60.8225 266.954 61.0475C267.413 61.2725 267.773 61.619 268.034 62.087C268.295 62.546 268.425 63.14 268.425 63.869V68H266.738V64.085C266.738 63.446 266.585 62.969 266.279 62.654C265.982 62.339 265.563 62.1815 265.023 62.1815C264.627 62.1815 264.276 62.2625 263.97 62.4245C263.664 62.5865 263.426 62.8295 263.255 63.1535C263.093 63.4685 263.012 63.869 263.012 64.355V68H261.324V60.791H262.931V62.735L262.647 62.141C262.899 61.682 263.264 61.331 263.741 61.088C264.227 60.836 264.785 60.71 265.415 60.71Z" fill="#BDE598"/>
<path d="M273.279 68.0945C272.487 68.0945 271.875 67.892 271.443 67.487C271.011 67.073 270.795 66.4655 270.795 65.6645V59.198H272.483V65.624C272.483 65.966 272.568 66.2315 272.739 66.4205C272.919 66.6095 273.167 66.704 273.482 66.704C273.86 66.704 274.175 66.605 274.427 66.407L274.899 67.6085C274.701 67.7705 274.458 67.892 274.17 67.973C273.882 68.054 273.585 68.0945 273.279 68.0945ZM269.607 62.195V60.845H274.413V62.195H269.607Z" fill="#BDE598"/>
<path fill-rule="evenodd" clip-rule="evenodd" d="M18.4514 19.1214C21.4261 30.5244 24.8346 39.1962 33.028 46.9077L30.9719 49.0923C22.1654 40.8038 18.5739 31.4756 15.5486 19.8786L18.4514 19.1214Z" fill="#1C4736"/>
<path fill-rule="evenodd" clip-rule="evenodd" d="M43.0252 37.7777C46.7756 43.6258 50.9344 47.4307 53.2213 48.6848L51.7788 51.3152C48.8989 49.736 44.4077 45.4908 40.4998 39.3973C36.5641 33.2602 33.123 25.1019 32.5032 15.5976L35.4968 15.4024C36.077 24.2981 39.3026 31.9732 43.0252 37.7777Z" fill="#1C4736"/>
<path fill-rule="evenodd" clip-rule="evenodd" d="M67.8343 44.4433C69.7185 45.3707 71.145 45.5887 71.8281 45.5099L72.1719 48.4901C70.6884 48.6613 68.6565 48.1918 66.5094 47.1348C64.3157 46.055 61.8624 44.2961 59.5117 41.6928C54.7973 36.4717 50.5257 27.892 49.5044 14.615L52.4956 14.385C53.4743 27.108 57.536 35.0283 61.7383 39.6822C63.8459 42.0164 65.9968 43.5387 67.8343 44.4433Z" fill="#1C4736"/>
<path fill-rule="evenodd" clip-rule="evenodd" d="M77.3244 0L78.7594 36.2825C78.8467 38.49 80.707 40.2086 82.9144 40.1213C85.1218 40.034 86.8405 38.1738 86.7532 35.9664L85.3306 0H88.9983C89.3006 2.05593 89.7419 4.52138 90.2337 7.26901C93.8084 27.2408 100.052 62.1209 74.9983 63C52.1983 63.8 57.1649 21.3333 62.4983 0H65.5806L64.1581 35.9664C64.0708 38.1738 65.7895 40.034 67.9969 40.1213C70.2043 40.2086 72.0645 38.49 72.1518 36.2825L73.5869 0H77.3244Z" fill="#1C4638"/>
<path fill-rule="evenodd" clip-rule="evenodd" d="M65.7674 47.5069C68.7271 53.8059 72.77 58.4482 77.3887 60.5346C69.1654 67.9494 58.2752 72.4631 46.3308 72.4631C22.0236 72.4631 2.08237 53.7704 0.0978241 29.976C12.7893 40.9273 32.883 48 55.5 48C58.9885 48 62.4169 47.8317 65.7674 47.5069Z" fill="#1C4736"/>
</g>
<defs>
<clipPath id="clip0_1_2">
<rect width="322" height="72" fill="white"/>
</clipPath>
</defs>
</svg>
