<svg width="84.347" height="46.202" viewBox="0 0 84.347 46.202" xmlns="http://www.w3.org/2000/svg">
<path d="M 10.43 45.615 L 5.01 45.615 L 5.01 18.105 L 0 18.105 L 0 13.916 L 5.01 13.916 L 5.01 10.664 Q 5.01 6.744 6.621 4.192 A 8.484 8.484 0 0 1 7.734 2.783 Q 10.326 0.136 14.958 0.007 A 17.245 17.245 0 0 1 15.439 0 A 14.223 14.223 0 0 1 19.16 0.498 L 18.867 4.893 A 14.941 14.941 0 0 0 16.75 4.648 A 17.491 17.491 0 0 0 15.938 4.629 Q 13.301 4.629 11.865 6.167 Q 10.43 7.705 10.43 10.576 L 10.43 13.916 L 17.197 13.916 L 17.197 18.105 L 10.43 18.105 L 10.43 45.615 Z" id="0" vector-effect="non-scaling-stroke"/>
<path d="M 40.459 20.742 L 37.324 23.057 L 46.816 34.395 A 17.672 17.672 0 0 0 48.777 27.079 A 21.074 21.074 0 0 0 48.809 25.928 L 53.701 25.928 A 25.488 25.488 0 0 1 53.118 31.527 A 18.062 18.062 0 0 1 50.098 38.32 L 56.191 45.615 L 49.688 45.615 L 46.846 42.246 A 14.776 14.776 0 0 1 42.034 45.094 A 16.894 16.894 0 0 1 41.763 45.19 Q 38.848 46.201 35.83 46.201 A 19.127 19.127 0 0 1 31.579 45.755 Q 28.308 45.01 25.961 43.02 A 12.257 12.257 0 0 1 25.811 42.891 A 10.873 10.873 0 0 1 22.054 34.994 A 14.867 14.867 0 0 1 22.031 34.16 A 10.003 10.003 0 0 1 23.745 28.506 Q 25.459 25.928 30.293 22.5 A 54.302 54.302 0 0 1 28.843 20.662 Q 27.179 18.45 26.484 16.934 Q 25.518 14.824 25.518 12.744 A 13.266 13.266 0 0 1 25.872 9.585 A 8.994 8.994 0 0 1 28.389 5.127 A 9.588 9.588 0 0 1 32.974 2.713 A 14.271 14.271 0 0 1 36.182 2.373 A 12.366 12.366 0 0 1 39.618 2.829 A 9.712 9.712 0 0 1 43.447 4.937 Q 46.318 7.5 46.318 11.396 A 9.115 9.115 0 0 1 45.015 16.157 Q 44.129 17.641 42.342 19.226 A 27.099 27.099 0 0 1 40.459 20.742 Z M 43.711 38.496 L 33.311 26.045 L 32.344 26.748 A 18.827 18.827 0 0 0 30.146 28.62 Q 29.093 29.68 28.452 30.757 A 6.587 6.587 0 0 0 27.451 34.16 A 8.639 8.639 0 0 0 27.793 36.651 A 6.719 6.719 0 0 0 29.692 39.697 A 7.475 7.475 0 0 0 32.988 41.447 Q 34.116 41.736 35.446 41.772 A 14.144 14.144 0 0 0 35.83 41.777 A 10.947 10.947 0 0 0 42.345 39.611 A 14.727 14.727 0 0 0 43.711 38.496 Z M 34.395 19.6 L 37.852 17.168 A 15.534 15.534 0 0 0 38.949 16.323 Q 40.067 15.373 40.576 14.487 Q 41.299 13.23 41.308 11.446 A 8.961 8.961 0 0 0 41.309 11.396 A 4.285 4.285 0 0 0 40.845 9.397 A 4.407 4.407 0 0 0 39.844 8.13 A 5.105 5.105 0 0 0 37.025 6.88 A 6.884 6.884 0 0 0 36.152 6.826 A 5.72 5.72 0 0 0 34.443 7.069 A 4.498 4.498 0 0 0 32.344 8.452 A 5.703 5.703 0 0 0 31.025 11.377 A 7.792 7.792 0 0 0 30.938 12.568 A 6.103 6.103 0 0 0 31.301 14.54 Q 32.058 16.749 34.395 19.6 Z" id="1" vector-effect="non-scaling-stroke" fill="#a1252c"/>
<path d="M 84.053 23.232 L 78.604 23.232 A 4.734 4.734 0 0 0 77.208 19.86 A 6.684 6.684 0 0 0 76.714 19.395 A 6.661 6.661 0 0 0 73.327 17.884 A 9.057 9.057 0 0 0 71.953 17.783 Q 69.864 17.783 68.417 18.426 A 5.303 5.303 0 0 0 67.324 19.072 Q 65.654 20.361 65.654 22.441 A 3.919 3.919 0 0 0 65.855 23.727 A 3.197 3.197 0 0 0 67.207 25.4 Q 68.76 26.396 72.817 27.305 A 42.117 42.117 0 0 1 75.535 28.003 Q 76.798 28.376 77.861 28.794 A 18.946 18.946 0 0 1 79.395 29.473 Q 81.471 30.511 82.662 31.898 A 7.07 7.07 0 0 1 83.13 32.505 Q 84.346 34.277 84.346 36.826 A 8.534 8.534 0 0 1 83.601 40.435 Q 82.754 42.275 80.947 43.638 A 12.192 12.192 0 0 1 76.413 45.728 Q 74.702 46.142 72.705 46.194 A 22.243 22.243 0 0 1 72.129 46.201 A 18.304 18.304 0 0 1 68.566 45.87 A 14.157 14.157 0 0 1 65.391 44.854 A 11.805 11.805 0 0 1 62.498 42.999 A 10.27 10.27 0 0 1 60.806 41.089 Q 59.15 38.672 59.15 35.859 L 64.57 35.859 A 6.215 6.215 0 0 0 65.06 38.028 A 5.516 5.516 0 0 0 66.753 40.181 A 7.147 7.147 0 0 0 69.434 41.466 Q 70.655 41.777 72.129 41.777 A 12.417 12.417 0 0 0 74.1 41.63 Q 75.845 41.349 77.065 40.532 A 4.594 4.594 0 0 0 78.162 39.529 A 3.693 3.693 0 0 0 78.926 37.207 A 4.657 4.657 0 0 0 78.683 35.669 A 3.871 3.871 0 0 0 77.271 33.794 Q 75.917 32.8 72.919 32.031 A 35.944 35.944 0 0 0 71.499 31.699 Q 68.798 31.122 66.828 30.394 A 17.462 17.462 0 0 1 64.966 29.59 A 12.342 12.342 0 0 1 63.33 28.601 Q 62.457 27.969 61.837 27.243 A 6.783 6.783 0 0 1 61.392 26.66 A 6.643 6.643 0 0 1 60.307 23.749 A 8.608 8.608 0 0 1 60.234 22.617 Q 60.234 18.721 63.53 16.025 Q 66.826 13.33 71.953 13.33 A 17.06 17.06 0 0 1 75.71 13.721 A 11.716 11.716 0 0 1 80.698 16.113 A 9.228 9.228 0 0 1 83.214 19.285 A 9.146 9.146 0 0 1 84.053 23.232 Z" id="2" vector-effect="non-scaling-stroke"/>
</svg>